<?xml version="1.0" standalone="no"?>
<!DOCTYPE svg PUBLIC "-//W3C//DTD SVG 20010904//EN"
 "http://www.w3.org/TR/2001/REC-SVG-20010904/DTD/svg10.dtd">
<svg version="1.0" xmlns="http://www.w3.org/2000/svg"
 width="500.000000pt" height="500.000000pt" viewBox="0 0 500.000000 500.000000"
 preserveAspectRatio="xMidYMid meet">
<metadata>
Created by potrace 1.11, written by Peter Selinger 2001-2013
</metadata>
<g transform="translate(0.000000,500.000000) scale(0.100000,-0.100000)"
fill="#000000" stroke="none">
<path d="M0 2500 l0 -2500 2500 0 2500 0 0 2500 0 2500 -2500 0 -2500 0 0
-2500z m2553 1371 c97 -23 157 -102 157 -207 l0 -59 111 -67 111 -66 35 24
c126 86 284 27 324 -120 14 -52 -2 -127 -37 -173 -25 -33 -90 -73 -119 -73
-12 0 -15 -17 -15 -104 l0 -104 32 -11 c49 -17 96 -58 119 -103 17 -33 20 -55
17 -109 -3 -57 -8 -74 -34 -106 -72 -90 -199 -109 -294 -43 -25 18 -26 17
-137 -49 -111 -65 -112 -66 -113 -104 0 -48 -23 -104 -58 -140 -126 -133 -352
-40 -352 145 l0 43 -112 62 -113 62 -21 -20 c-34 -32 -103 -48 -159 -38 -64
12 -110 43 -139 92 -33 58 -40 99 -25 159 14 61 78 132 131 146 l33 8 3 101 3
100 -58 29 c-133 66 -161 226 -59 329 71 71 159 80 258 27 l47 -25 108 71
c106 69 108 71 105 105 -8 87 51 182 131 211 50 17 70 18 120 7z m-639 -1824
c12 -9 17 -23 14 -42 -3 -27 -7 -30 -38 -30 -32 0 -35 2 -38 34 -5 47 25 65
62 38z m764 -6 c2 -1 2 -11 0 -23 -3 -22 -8 -23 -119 -28 -138 -6 -149 -12
-149 -81 0 -66 18 -81 129 -109 105 -26 136 -46 151 -98 25 -92 3 -174 -56
-198 -37 -16 -193 -21 -258 -8 -28 5 -32 9 -28 30 4 24 6 24 116 24 125 0 150
9 161 60 10 47 -3 89 -33 104 -15 7 -58 21 -96 30 -93 23 -125 41 -142 81 -16
39 -19 132 -4 169 12 33 44 49 110 56 41 4 191 -2 218 -9z m-920 -23 l3 -28
-118 0 c-79 0 -123 -4 -131 -12 -7 -7 -12 -43 -12 -90 l0 -78 115 0 115 0 0
-30 0 -30 -115 0 -114 0 -3 -127 -3 -128 -32 -3 -33 -3 0 248 c0 325 -8 313
200 310 l125 -2 3 -27z m390 -75 l3 -63 59 0 c57 0 60 -1 60 -25 0 -24 -3 -25
-60 -25 l-60 0 0 -130 c0 -144 3 -150 73 -150 29 0 35 -4 39 -24 6 -28 -11
-36 -80 -36 -35 0 -49 6 -73 29 l-29 29 0 141 0 141 -35 0 c-31 0 -35 3 -35
25 0 22 4 25 35 25 l35 0 0 66 0 65 33 -3 c32 -3 32 -3 35 -65z m925 -67 c14
-10 29 -25 33 -34 4 -9 9 -90 12 -179 l4 -163 -31 0 c-28 0 -31 3 -31 30 l0
29 -49 -30 c-57 -36 -114 -46 -165 -29 -46 15 -66 52 -66 124 0 44 5 61 24 83
23 27 28 28 135 31 l111 4 0 29 c0 16 -9 38 -21 50 -21 21 -28 21 -125 16
l-104 -7 0 25 c0 25 2 26 95 39 59 8 152 -1 178 -18z m484 -10 c22 -26 23 -34
23 -197 l0 -169 -35 0 -35 0 0 158 c0 110 -4 162 -12 170 -20 20 -74 14 -133
-15 l-55 -27 0 -143 0 -143 -35 0 -35 0 0 195 0 195 30 0 c26 0 30 -4 30 -28
l0 -29 68 35 c57 28 75 33 116 29 38 -3 55 -11 73 -31z m-1637 -171 l0 -195
-30 0 -30 0 0 195 0 195 30 0 30 0 0 -195z"/>
<path d="M2240 3470 l-105 -69 -1 -65 c-1 -86 -38 -149 -107 -186 l-47 -25 0
-105 0 -105 50 -27 c71 -40 104 -100 103 -188 l-1 -66 103 -57 103 -58 29 27
c15 15 42 33 60 40 69 30 181 8 227 -45 11 -11 23 -21 27 -21 4 0 53 27 107
60 l99 60 0 62 c-1 94 50 175 126 201 15 6 17 21 17 116 l0 109 -45 26 c-65
39 -99 101 -97 180 l0 62 -110 69 c-91 56 -114 66 -127 56 -62 -45 -78 -51
-134 -51 -61 0 -119 19 -152 50 -20 18 -22 18 -125 -50z m424 -206 c10 -4 16
-18 16 -40 l0 -34 -94 0 c-108 0 -119 -7 -114 -72 l3 -43 88 -3 87 -3 0 -34 0
-35 -90 0 -90 0 0 -101 0 -100 -47 3 -48 3 -3 199 c-3 265 -4 264 175 265 56
1 108 -2 117 -5z"/>
<path d="M2868 1679 c-21 -12 -25 -98 -6 -117 26 -26 126 -5 170 35 11 10 18
30 18 55 l0 38 -82 0 c-46 0 -91 -5 -100 -11z"/>
</g>
</svg>
